<svg xmlns="http://www.w3.org/2000/svg" xmlns:xlink="http://www.w3.org/1999/xlink" width="47.074" height="47.075" viewBox="0 0 47.074 47.075">
  <defs>
    <filter id="합치기_7" x="0.5" y="0.5" width="38.074" height="38.075" filterUnits="userSpaceOnUse">
      <feOffset dx="-1" dy="-1" input="SourceAlpha"/>
      <feGaussianBlur stdDeviation="1.5" result="blur"/>
      <feFlood flood-color="#606060" flood-opacity="0.439"/>
      <feComposite operator="in" in2="blur"/>
      <feComposite in="SourceGraphic"/>
    </filter>
    <filter id="합치기_6" x="0" y="0" width="47.074" height="47.075" filterUnits="userSpaceOnUse">
      <feOffset dx="3" dy="3" input="SourceAlpha"/>
      <feGaussianBlur stdDeviation="3" result="blur-2"/>
      <feFlood flood-opacity="0.439"/>
      <feComposite operator="in" in2="blur-2"/>
      <feComposite in="SourceGraphic"/>
    </filter>
  </defs>
  <g id="그룹_48" data-name="그룹 48" transform="translate(-1385.208 -633.044)">
    <g transform="matrix(1, 0, 0, 1, 1385.21, 633.04)" filter="url(#합치기_7)">
      <path id="합치기_7-2" data-name="합치기 7" d="M1.216,27.859a4.152,4.152,0,0,1,0-5.871l7.451-7.451L1.216,7.087A4.151,4.151,0,0,1,7.087,1.216l7.45,7.451,7.451-7.451a4.151,4.151,0,0,1,5.871,5.871l-7.451,7.451,7.451,7.451a4.151,4.151,0,0,1-5.871,5.87l-7.451-7.451L7.087,27.859a4.15,4.15,0,0,1-5.871,0Z" transform="translate(6 6)" fill="#2b2b2b"/>
    </g>
    <g transform="matrix(1, 0, 0, 1, 1385.21, 633.04)" filter="url(#합치기_6)">
      <path id="합치기_6-2" data-name="합치기 6" d="M1.216,27.859a4.152,4.152,0,0,1,0-5.871l7.451-7.451L1.216,7.087A4.151,4.151,0,0,1,7.087,1.216l7.45,7.451,7.451-7.451a4.151,4.151,0,0,1,5.871,5.871l-7.451,7.451,7.451,7.451a4.151,4.151,0,0,1-5.871,5.87l-7.451-7.451L7.087,27.859a4.15,4.15,0,0,1-5.871,0Z" transform="translate(6 6)" fill="#2b2b2b"/>
    </g>
  </g>
</svg>
