<svg xmlns="http://www.w3.org/2000/svg" xmlns:xlink="http://www.w3.org/1999/xlink" width="190.5" height="62.5" viewBox="0 0 190.5 62.5">
  <defs>
    <filter id="타원_2" x="0" y="0" width="53" height="53" filterUnits="userSpaceOnUse">
      <feOffset dx="-2" dy="-2" input="SourceAlpha"/>
      <feGaussianBlur stdDeviation="1.5" result="blur"/>
      <feFlood flood-color="#606060" flood-opacity="0.439"/>
      <feComposite operator="in" in2="blur"/>
      <feComposite in="SourceGraphic"/>
    </filter>
    <filter id="타원_3" x="64" y="0" width="53" height="53" filterUnits="userSpaceOnUse">
      <feOffset dx="-2" dy="-2" input="SourceAlpha"/>
      <feGaussianBlur stdDeviation="1.5" result="blur-2"/>
      <feFlood flood-color="#606060" flood-opacity="0.439"/>
      <feComposite operator="in" in2="blur-2"/>
      <feComposite in="SourceGraphic"/>
    </filter>
    <filter id="타원_4" x="128" y="0" width="53" height="53" filterUnits="userSpaceOnUse">
      <feOffset dx="-2" dy="-2" input="SourceAlpha"/>
      <feGaussianBlur stdDeviation="1.5" result="blur-3"/>
      <feFlood flood-color="#606060" flood-opacity="0.439"/>
      <feComposite operator="in" in2="blur-3"/>
      <feComposite in="SourceGraphic"/>
    </filter>
    <filter id="타원_1" x="0.5" y="0.5" width="62" height="62" filterUnits="userSpaceOnUse">
      <feOffset dx="3" dy="3" input="SourceAlpha"/>
      <feGaussianBlur stdDeviation="3" result="blur-4"/>
      <feFlood flood-opacity="0.439"/>
      <feComposite operator="in" in2="blur-4"/>
      <feComposite in="SourceGraphic"/>
    </filter>
    <filter id="타원_1-2" x="64.5" y="0.5" width="62" height="62" filterUnits="userSpaceOnUse">
      <feOffset dx="3" dy="3" input="SourceAlpha"/>
      <feGaussianBlur stdDeviation="3" result="blur-5"/>
      <feFlood flood-opacity="0.439"/>
      <feComposite operator="in" in2="blur-5"/>
      <feComposite in="SourceGraphic"/>
    </filter>
    <filter id="타원_1-3" x="128.5" y="0.5" width="62" height="62" filterUnits="userSpaceOnUse">
      <feOffset dx="3" dy="3" input="SourceAlpha"/>
      <feGaussianBlur stdDeviation="3" result="blur-6"/>
      <feFlood flood-opacity="0.439"/>
      <feComposite operator="in" in2="blur-6"/>
      <feComposite in="SourceGraphic"/>
    </filter>
  </defs>
  <g id="그룹_46" data-name="그룹 46" transform="translate(-1594.5 -691.5)">
    <g transform="matrix(1, 0, 0, 1, 1594.5, 691.5)" filter="url(#타원_2)">
      <circle id="타원_2-2" data-name="타원 2" cx="22" cy="22" r="22" transform="translate(6.5 6.5)" fill="#2b2b2b"/>
    </g>
    <g transform="matrix(1, 0, 0, 1, 1594.5, 691.5)" filter="url(#타원_3)">
      <circle id="타원_3-2" data-name="타원 3" cx="22" cy="22" r="22" transform="translate(70.5 6.5)" fill="#2b2b2b"/>
    </g>
    <g transform="matrix(1, 0, 0, 1, 1594.5, 691.5)" filter="url(#타원_4)">
      <circle id="타원_4-2" data-name="타원 4" cx="22" cy="22" r="22" transform="translate(134.5 6.5)" fill="#2b2b2b"/>
    </g>
    <g transform="matrix(1, 0, 0, 1, 1594.5, 691.5)" filter="url(#타원_1)">
      <circle id="타원_1-4" data-name="타원 1" cx="22" cy="22" r="22" transform="translate(6.5 6.5)" fill="#2b2b2b"/>
    </g>
    <g transform="matrix(1, 0, 0, 1, 1594.5, 691.5)" filter="url(#타원_1-2)">
      <circle id="타원_1-5" data-name="타원 1" cx="22" cy="22" r="22" transform="translate(70.5 6.5)" fill="#2b2b2b"/>
    </g>
    <g transform="matrix(1, 0, 0, 1, 1594.5, 691.5)" filter="url(#타원_1-3)">
      <circle id="타원_1-6" data-name="타원 1" cx="22" cy="22" r="22" transform="translate(134.5 6.5)" fill="#2b2b2b"/>
    </g>
  </g>
</svg>
