<svg xmlns="http://www.w3.org/2000/svg" width="300" height="300" viewBox="0 0 300 300">
  <g id="그룹_49" data-name="그룹 49" transform="translate(-1221 -291)">
    <g id="사각형_42" data-name="사각형 42" transform="translate(1221 291)" fill="#fff" stroke="#707070" stroke-width="1">
      <rect width="300" height="300" stroke="none"/>
      <rect x="0.5" y="0.5" width="299" height="299" fill="none"/>
    </g>
    <text id="클릭해서_이미지_선택하기" data-name="클릭해서 이미지 선택하기" transform="translate(1265 550)" fill="#2b2b2b" font-size="23" font-family="BMJUAOTF, BM JUA_OTF"><tspan x="0" y="0">클릭해서 이미지 선택하기</tspan></text>
    <g id="합치기_8" data-name="합치기 8" transform="translate(7315 -836)" fill="none">
      <path d="M-5947.28,1337a10,10,0,0,1-10-10V1267.28H-6017a10,10,0,0,1-10-10v-6.56a10,10,0,0,1,10-10h59.72V1181a10,10,0,0,1,10-10h6.56a10,10,0,0,1,10,10v59.721H-5871a10,10,0,0,1,10,10v6.56a10,10,0,0,1-10,10h-59.72V1327a10,10,0,0,1-10,10Z" stroke="none"/>
      <path d="M -5940.72021484375 1334.000732421875 C -5936.86083984375 1334.000732421875 -5933.720703125 1330.859985351562 -5933.720703125 1326.99951171875 L -5933.720703125 1267.280029296875 L -5933.720703125 1264.280029296875 L -5930.720703125 1264.280029296875 L -5871.0009765625 1264.280029296875 C -5867.1416015625 1264.280029296875 -5864.00146484375 1261.140014648438 -5864.00146484375 1257.2802734375 L -5864.00146484375 1250.720336914062 C -5864.00146484375 1246.860595703125 -5867.1416015625 1243.720581054688 -5871.0009765625 1243.720581054688 L -5930.720703125 1243.720581054688 L -5933.720703125 1243.720581054688 L -5933.720703125 1240.720581054688 L -5933.720703125 1180.99951171875 C -5933.720703125 1177.139892578125 -5936.86083984375 1173.999877929688 -5940.72021484375 1173.999877929688 L -5947.2802734375 1173.999877929688 C -5951.1396484375 1173.999877929688 -5954.27978515625 1177.139892578125 -5954.27978515625 1180.99951171875 L -5954.27978515625 1240.720581054688 L -5954.27978515625 1243.720581054688 L -5957.27978515625 1243.720581054688 L -6016.99951171875 1243.720581054688 C -6020.85986328125 1243.720581054688 -6024.00048828125 1246.860595703125 -6024.00048828125 1250.720336914062 L -6024.00048828125 1257.2802734375 C -6024.00048828125 1261.140014648438 -6020.85986328125 1264.280029296875 -6016.99951171875 1264.280029296875 L -5957.27978515625 1264.280029296875 L -5954.27978515625 1264.280029296875 L -5954.27978515625 1267.280029296875 L -5954.27978515625 1326.99951171875 C -5954.27978515625 1330.859985351562 -5951.1396484375 1334.000732421875 -5947.2802734375 1334.000732421875 L -5940.72021484375 1334.000732421875 M -5940.72021484375 1337.000732421875 L -5947.2802734375 1337.000732421875 C -5952.802734375 1337.000732421875 -5957.27978515625 1332.523559570312 -5957.27978515625 1326.99951171875 L -5957.27978515625 1267.280029296875 L -6016.99951171875 1267.280029296875 C -6022.5234375 1267.280029296875 -6027.00048828125 1262.802734375 -6027.00048828125 1257.2802734375 L -6027.00048828125 1250.720336914062 C -6027.00048828125 1245.197875976562 -6022.5234375 1240.720581054688 -6016.99951171875 1240.720581054688 L -5957.27978515625 1240.720581054688 L -5957.27978515625 1180.99951171875 C -5957.27978515625 1175.47705078125 -5952.802734375 1170.999877929688 -5947.2802734375 1170.999877929688 L -5940.72021484375 1170.999877929688 C -5935.19775390625 1170.999877929688 -5930.720703125 1175.47705078125 -5930.720703125 1180.99951171875 L -5930.720703125 1240.720581054688 L -5871.0009765625 1240.720581054688 C -5865.47705078125 1240.720581054688 -5861.00146484375 1245.197875976562 -5861.00146484375 1250.720336914062 L -5861.00146484375 1257.2802734375 C -5861.00146484375 1262.802734375 -5865.47705078125 1267.280029296875 -5871.0009765625 1267.280029296875 L -5930.720703125 1267.280029296875 L -5930.720703125 1326.99951171875 C -5930.720703125 1332.523559570312 -5935.19775390625 1337.000732421875 -5940.72021484375 1337.000732421875 Z" stroke="none" fill="#2b2b2b"/>
    </g>
  </g>
</svg>
