<svg xmlns="http://www.w3.org/2000/svg" xmlns:xlink="http://www.w3.org/1999/xlink" width="218.501" height="218.5" viewBox="0 0 218.501 218.5">
  <defs>
    <filter id="합치기_4" x="0.5" y="0.5" width="218.001" height="218" filterUnits="userSpaceOnUse">
      <feOffset dx="3" dy="3" input="SourceAlpha"/>
      <feGaussianBlur stdDeviation="3" result="blur"/>
      <feFlood flood-opacity="0.439"/>
      <feComposite operator="in" in2="blur"/>
      <feComposite in="SourceGraphic"/>
    </filter>
    <filter id="합치기_5" x="0" y="0" width="209.001" height="209" filterUnits="userSpaceOnUse">
      <feOffset dx="-2" dy="-2" input="SourceAlpha"/>
      <feGaussianBlur stdDeviation="1.5" result="blur-2"/>
      <feFlood flood-color="#606060" flood-opacity="0.439"/>
      <feComposite operator="in" in2="blur-2"/>
      <feComposite in="SourceGraphic"/>
    </filter>
  </defs>
  <g id="그룹_47" data-name="그룹 47" transform="translate(-1616.5 -613.5)">
    <g transform="matrix(1, 0, 0, 1, 1616.5, 613.5)" filter="url(#합치기_4)">
      <path id="합치기_4-2" data-name="합치기 4" d="M142,101a10,10,0,0,1-10-10V17H58A10,10,0,0,1,48,7V-5A10,10,0,0,1,58-15h74V-89a10,10,0,0,1,10-10h12a10,10,0,0,1,10,10v74h74A10,10,0,0,1,248-5V7a10,10,0,0,1-10,10H164V91a10,10,0,0,1-10,10Z" transform="translate(-41.5 105.5)" fill="#2b2b2b"/>
    </g>
    <g transform="matrix(1, 0, 0, 1, 1616.5, 613.5)" filter="url(#합치기_5)">
      <path id="합치기_5-2" data-name="합치기 5" d="M142,101a10,10,0,0,1-10-10V17H58A10,10,0,0,1,48,7V-5A10,10,0,0,1,58-15h74V-89a10,10,0,0,1,10-10h12a10,10,0,0,1,10,10v74h74A10,10,0,0,1,248-5V7a10,10,0,0,1-10,10H164V91a10,10,0,0,1-10,10Z" transform="translate(-41.5 105.5)" fill="#2b2b2b"/>
    </g>
  </g>
</svg>
