<svg width="250" height="250" viewBox="0 0 250 250" fill="none" xmlns="http://www.w3.org/2000/svg">
<mask id="path-1-inside-1" fill="white">
<path fill-rule="evenodd" clip-rule="evenodd" d="M106.5 5C106.5 2.23857 108.739 0 111.5 0H138.5C141.261 0 143.5 2.23858 143.5 5V106.5H140.5V5C140.5 3.89543 139.605 3 138.5 3H111.5C110.395 3 109.5 3.89543 109.5 5V106.5H106.5V5ZM109.5 143.5H106.5V245C106.5 247.761 108.739 250 111.5 250H138.5C141.261 250 143.5 247.761 143.5 245V143.5H140.5V245C140.5 246.105 139.605 247 138.5 247H111.5C110.395 247 109.5 246.105 109.5 245V143.5Z"/>
</mask>
<path fill-rule="evenodd" clip-rule="evenodd" d="M106.5 5C106.5 2.23857 108.739 0 111.5 0H138.5C141.261 0 143.5 2.23858 143.5 5V106.5H140.5V5C140.5 3.89543 139.605 3 138.5 3H111.5C110.395 3 109.5 3.89543 109.5 5V106.5H106.5V5ZM109.5 143.5H106.5V245C106.5 247.761 108.739 250 111.5 250H138.5C141.261 250 143.5 247.761 143.5 245V143.5H140.5V245C140.5 246.105 139.605 247 138.5 247H111.5C110.395 247 109.5 246.105 109.5 245V143.5Z" fill="white"/>
<path d="M143.5 106.5V109.5H146.5V106.5H143.5ZM140.5 106.5H137.5V109.5H140.5V106.5ZM109.5 106.5V109.5H112.5V106.5H109.5ZM106.5 106.5H103.5V109.5H106.5V106.5ZM109.5 143.5H112.5V140.5H109.5V143.5ZM106.5 143.5V140.5H103.5V143.5H106.5ZM143.5 143.5H146.5V140.5H143.5V143.5ZM140.5 143.5V140.5H137.5V143.5H140.5ZM111.5 -3C107.082 -3 103.5 0.581713 103.5 5H109.5C109.5 3.89543 110.395 3 111.5 3V-3ZM138.5 -3H111.5V3H138.5V-3ZM146.5 5C146.5 0.581724 142.918 -3 138.5 -3V3C139.605 3 140.5 3.89543 140.5 5H146.5ZM146.5 106.5V5H140.5V106.5H146.5ZM140.5 109.5H143.5V103.5H140.5V109.5ZM137.5 5V106.5H143.5V5H137.5ZM138.5 6C137.948 6 137.5 5.55229 137.5 5H143.5C143.5 2.23857 141.261 0 138.5 0V6ZM111.5 6H138.5V0H111.5V6ZM112.5 5C112.5 5.55229 112.052 6 111.5 6V0C108.739 0 106.5 2.23857 106.5 5H112.5ZM112.5 106.5V5H106.5V106.5H112.5ZM106.5 109.5H109.5V103.5H106.5V109.5ZM103.5 5V106.5H109.5V5H103.5ZM109.5 140.5H106.5V146.5H109.5V140.5ZM103.5 143.5V245H109.5V143.5H103.5ZM103.5 245C103.5 249.418 107.082 253 111.5 253V247C110.395 247 109.5 246.105 109.5 245H103.5ZM111.5 253H138.5V247H111.5V253ZM138.5 253C142.918 253 146.5 249.418 146.5 245H140.5C140.5 246.105 139.605 247 138.5 247V253ZM146.5 245V143.5H140.5V245H146.5ZM143.5 140.5H140.5V146.5H143.5V140.5ZM137.5 143.5V245H143.5V143.5H137.5ZM137.5 245C137.5 244.448 137.948 244 138.5 244V250C141.261 250 143.5 247.761 143.5 245H137.5ZM138.5 244H111.5V250H138.5V244ZM111.5 244C112.052 244 112.5 244.448 112.5 245H106.5C106.5 247.761 108.739 250 111.5 250V244ZM112.5 245V143.5H106.5V245H112.5Z" fill="#1BA0F2" mask="url(#path-1-inside-1)"/>
<mask id="path-3-inside-2" fill="white">
<path fill-rule="evenodd" clip-rule="evenodd" d="M5 143.5C2.23857 143.5 0 141.261 0 138.5L0 111.5C0 108.739 2.23858 106.5 5 106.5H106.5V109.5H5C3.89543 109.5 3 110.395 3 111.5L3 138.5C3 139.605 3.89543 140.5 5 140.5H106.5V143.5H5ZM143.5 140.5V143.5L245 143.5C247.761 143.5 250 141.261 250 138.5V111.5C250 108.739 247.761 106.5 245 106.5L143.5 106.5V109.5L245 109.5C246.105 109.5 247 110.395 247 111.5V138.5C247 139.605 246.105 140.5 245 140.5L143.5 140.5Z"/>
</mask>
<path fill-rule="evenodd" clip-rule="evenodd" d="M5 143.5C2.23857 143.5 0 141.261 0 138.5L0 111.5C0 108.739 2.23858 106.5 5 106.5H106.5V109.5H5C3.89543 109.5 3 110.395 3 111.5L3 138.5C3 139.605 3.89543 140.5 5 140.5H106.5V143.5H5ZM143.5 140.5V143.5L245 143.5C247.761 143.5 250 141.261 250 138.5V111.5C250 108.739 247.761 106.5 245 106.5L143.5 106.5V109.5L245 109.5C246.105 109.5 247 110.395 247 111.5V138.5C247 139.605 246.105 140.5 245 140.5L143.5 140.5Z" fill="white"/>
<path d="M106.5 106.5H109.5V103.5H106.5V106.5ZM106.5 109.5V112.5H109.5V109.5H106.5ZM106.5 140.5H109.5V137.5H106.5V140.5ZM106.5 143.5V146.5H109.5V143.5H106.5ZM143.5 140.5V137.5H140.5V140.5H143.5ZM143.5 143.5H140.5V146.5H143.5V143.5ZM143.5 106.5V103.5H140.5V106.5H143.5ZM143.5 109.5H140.5V112.5H143.5V109.5ZM-3 138.5C-3 142.918 0.581714 146.5 5 146.5V140.5C3.89543 140.5 3 139.605 3 138.5H-3ZM-3 111.5L-3 138.5H3L3 111.5H-3ZM5 103.5C0.581722 103.5 -3 107.082 -3 111.5H3C3 110.395 3.89543 109.5 5 109.5L5 103.5ZM106.5 103.5H5L5 109.5H106.5V103.5ZM109.5 109.5V106.5H103.5V109.5H109.5ZM5 112.5H106.5V106.5H5L5 112.5ZM6 111.5C6 112.052 5.55229 112.5 5 112.5L5 106.5C2.23857 106.5 0 108.739 0 111.5H6ZM6 138.5L6 111.5H0L0 138.5H6ZM5 137.5C5.55229 137.5 6 137.948 6 138.5H0C0 141.261 2.23857 143.5 5 143.5V137.5ZM106.5 137.5H5V143.5H106.5V137.5ZM109.5 143.5V140.5H103.5V143.5H109.5ZM5 146.5H106.5V140.5H5V146.5ZM140.5 140.5V143.5H146.5V140.5H140.5ZM143.5 146.5L245 146.5V140.5L143.5 140.5V146.5ZM245 146.5C249.418 146.5 253 142.918 253 138.5H247C247 139.605 246.105 140.5 245 140.5V146.5ZM253 138.5V111.5H247V138.5H253ZM253 111.5C253 107.082 249.418 103.5 245 103.5V109.5C246.105 109.5 247 110.395 247 111.5H253ZM245 103.5L143.5 103.5V109.5L245 109.5V103.5ZM140.5 106.5V109.5H146.5V106.5H140.5ZM143.5 112.5L245 112.5V106.5L143.5 106.5V112.5ZM245 112.5C244.448 112.5 244 112.052 244 111.5H250C250 108.739 247.761 106.5 245 106.5V112.5ZM244 111.5V138.5H250V111.5H244ZM244 138.5C244 137.948 244.448 137.5 245 137.5V143.5C247.761 143.5 250 141.261 250 138.5H244ZM245 137.5L143.5 137.5V143.5L245 143.5V137.5Z" fill="#1BA0F2" mask="url(#path-3-inside-2)"/>
<path d="M106.5 140.5H108C108.828 140.5 109.5 141.172 109.5 142V143.5H106.5V140.5Z" fill="#1BA0F2"/>
<path d="M140.5 142C140.5 141.172 141.172 140.5 142 140.5H143.5V143.5H140.5V142Z" fill="#1BA0F2"/>
<path d="M106.5 106.5H109.5V108C109.5 108.828 108.828 109.5 108 109.5H106.5V106.5Z" fill="#1BA0F2"/>
<path d="M140.5 106.5H143.5V109.5H142C141.172 109.5 140.5 108.828 140.5 108V106.5Z" fill="#1BA0F2"/>
</svg>
